<?xml version="1.0" encoding="UTF-8" standalone="no"?>
<!-- Created with Inkscape (http://www.inkscape.org/) -->

<svg
   xmlns:dc="http://purl.org/dc/elements/1.1/"
   xmlns:cc="http://creativecommons.org/ns#"
   xmlns:rdf="http://www.w3.org/1999/02/22-rdf-syntax-ns#"
   xmlns:svg="http://www.w3.org/2000/svg"
   xmlns="http://www.w3.org/2000/svg"
   xmlns:sodipodi="http://sodipodi.sourceforge.net/DTD/sodipodi-0.dtd"
   xmlns:inkscape="http://www.inkscape.org/namespaces/inkscape"
   width="155"
   height="32"
   viewBox="0 0 41.010416 8.4666667"
   version="1.1"
   id="svg8"
   inkscape:version="0.92.2 5c3e80d, 2017-08-06"
   sodipodi:docname="jscauselogo.svg">
  <defs
     id="defs2" />
  <sodipodi:namedview
     id="base"
     pagecolor="#ffffff"
     bordercolor="#666666"
     borderopacity="1.0"
     inkscape:pageopacity="0.0"
     inkscape:pageshadow="2"
     inkscape:zoom="1.4"
     inkscape:cx="-5.5328986"
     inkscape:cy="-34.177376"
     inkscape:document-units="mm"
     inkscape:current-layer="layer1"
     showgrid="false"
     inkscape:window-width="1280"
     inkscape:window-height="690"
     inkscape:window-x="0"
     inkscape:window-y="1"
     inkscape:window-maximized="1"
     fit-margin-top="0"
     fit-margin-left="0"
     fit-margin-right="0"
     fit-margin-bottom="0"
     units="px" />
  <metadata
     id="metadata5">
    <rdf:RDF>
      <cc:Work
         rdf:about="">
        <dc:format>image/svg+xml</dc:format>
        <dc:type
           rdf:resource="http://purl.org/dc/dcmitype/StillImage" />
        <dc:title></dc:title>
      </cc:Work>
    </rdf:RDF>
  </metadata>
  <g
     inkscape:label="Layer 1"
     inkscape:groupmode="layer"
     id="layer1"
     transform="translate(-26.647414,-64.216563)">
    <g
       id="g4607"
       transform="matrix(1.0098202,0,0,1.0191083,-0.26168299,-1.3888538)">
      <g
         aria-label="JS"
         style="font-style:normal;font-variant:normal;font-weight:normal;font-stretch:normal;font-size:10.58333302px;line-height:1.25;font-family:'.Helvetica LT MM';-inkscape-font-specification:'.Helvetica LT MM, Normal';font-variant-ligatures:normal;font-variant-caps:normal;font-variant-numeric:normal;font-feature-settings:normal;text-align:start;letter-spacing:0px;word-spacing:0px;writing-mode:lr-tb;text-anchor:start;fill:#38c435;fill-opacity:1;stroke:none;stroke-width:0.26458332"
         id="text817">
        <path
           d="m 26.659415,69.899814 c -0.04233,0.486833 0.01058,1.407583 0.433917,2.010833 0.34925,0.5715 0.994833,0.740834 1.672167,0.740834 0.941916,0 1.576916,-0.275167 1.926166,-1.04775 0.201084,-0.47625 0.22225,-1.17475 0.22225,-1.989667 v -5.069417 h -1.132416 c 0,1.703917 0,3.418417 0,5.132917 v 0.635 c 0,0.656167 -0.127,1.36525 -1.04775,1.36525 -0.846667,0 -0.846667,-0.677333 -0.846667,-1.280583 -0.137583,-0.05292 -0.137583,-0.28575 -0.137583,-0.497417 z"
           style="font-style:normal;font-variant:normal;font-weight:normal;font-stretch:normal;font-size:10.58333302px;font-family:'.Helvetica LT MM';-inkscape-font-specification:'.Helvetica LT MM, Normal';font-variant-ligatures:normal;font-variant-caps:normal;font-variant-numeric:normal;font-feature-settings:normal;text-align:start;writing-mode:lr-tb;text-anchor:start;fill:#38c435;fill-opacity:1;stroke-width:0.26458332"
           id="path817" />
        <path
           d="m 37.664097,66.534314 c 0,-0.296333 -0.0635,-0.550333 -0.179916,-0.783167 -0.328084,-0.878416 -1.143,-1.375833 -2.413,-1.375833 -1.185334,0 -2.06375,0.592667 -2.413,1.481667 -0.09525,0.243416 -0.137584,0.508 -0.137584,0.79375 v -0.08467 c 0,1.55575 0.73025,1.767417 2.667,2.391833 0.836084,0.275167 1.375834,0.243417 1.439334,1.418167 0.09525,0.433917 0,0.772583 -0.264584,1.005417 -0.264583,0.232833 -0.709083,0.359833 -1.23825,0.359833 -0.34925,-0.01058 -0.645583,-0.07408 -0.867833,-0.169333 -0.60325,-0.264584 -0.772583,-0.709084 -0.751417,-1.513417 h -1.121833 c 0.01058,0.370417 0.02117,0.941917 0.201083,1.27 0.53975,1.04775 1.545167,1.354667 2.497667,1.354667 1.397,0 2.338917,-0.635 2.69875,-1.661584 0.105833,-0.232833 0.15875,-0.497416 0.15875,-0.804333 0,-1.143 -0.4445,-1.735667 -1.93675,-2.148417 -1.005417,-0.296333 -2.211917,-0.391583 -2.286,-1.42875 -0.03175,-0.275166 0,-0.60325 0.1905,-0.846666 0.179917,-0.254 0.550333,-0.465667 1.259417,-0.465667 0.582083,0 0.994833,0.254 1.2065,0.635 0.116416,0.137583 0.1905,0.338667 0.179916,0.5715 z"
           style="font-style:normal;font-variant:normal;font-weight:normal;font-stretch:normal;font-size:10.58333302px;font-family:'.Helvetica LT MM';-inkscape-font-specification:'.Helvetica LT MM, Normal';font-variant-ligatures:normal;font-variant-caps:normal;font-variant-numeric:normal;font-feature-settings:normal;text-align:start;writing-mode:lr-tb;text-anchor:start;fill:#38c435;fill-opacity:1;stroke-width:0.26458332"
           id="path819" />
      </g>
      <g
         aria-label="Cause"
         style="font-style:normal;font-variant:normal;font-weight:normal;font-stretch:normal;font-size:10.58333302px;line-height:1.25;font-family:'.Helvetica LT MM';-inkscape-font-specification:'.Helvetica LT MM, Normal';font-variant-ligatures:normal;font-variant-caps:normal;font-variant-numeric:normal;font-feature-settings:normal;text-align:start;letter-spacing:0px;word-spacing:0px;writing-mode:lr-tb;text-anchor:start;fill:#000000;fill-opacity:1;stroke:none;stroke-width:0.26458332"
         id="text821">
        <path
           d="m 44.923224,66.957647 c 0.01058,-0.550333 -0.116417,-1.037166 -0.391583,-1.42875 -0.455084,-0.66675 -1.185334,-1.153583 -2.286,-1.153583 -1.4605,0 -2.233084,0.85725 -2.63525,1.926167 -0.275167,0.656166 -0.328083,1.471083 -0.328083,2.19075 0.01058,0.973666 0.05292,2.0955 0.539749,2.82575 0.433917,0.79375 1.185334,1.36525 2.487084,1.36525 0.899583,0 1.545166,-0.391584 2.06375,-1.016 0.508,-0.645584 0.433916,-1.185334 0.560916,-2.06375 h -1.11125 c -0.07408,0.508 -0.169333,1.005416 -0.486833,1.3335 -0.179917,0.433916 -0.47625,0.772583 -1.121833,0.772583 -0.762,0 -1.195917,-0.4445 -1.449917,-1.016 -0.34925,-0.6985 -0.338667,-1.735667 -0.3175,-2.286 0,-0.560917 0.02117,-1.513417 0.381,-2.137833 0.264583,-0.53975 0.6985,-0.92075 1.36525,-0.92075 0.677333,0 1.037167,0.328083 1.217083,0.762 0.243417,0.15875 0.381,0.455083 0.41275,0.846666 z"
           style="font-style:normal;font-variant:normal;font-weight:normal;font-stretch:normal;font-size:10.58333302px;font-family:'.Helvetica LT MM';-inkscape-font-specification:'.Helvetica LT MM, Normal';font-variant-ligatures:normal;font-variant-caps:normal;font-variant-numeric:normal;font-feature-settings:normal;text-align:start;writing-mode:lr-tb;text-anchor:start;stroke-width:0.26458332"
           id="path822" />
        <path
           d="m 50.581835,72.005897 c -0.529167,0.04233 -0.508,-0.211666 -0.508,-0.47625 v -2.010833 c 0,-0.550333 0,-1.058333 -0.04233,-1.5875 -0.0635,-0.402167 -0.232833,-1.407583 -1.820333,-1.407583 -1.17475,0 -1.8415,0.381 -2.021416,1.227666 -0.04233,0.137584 -0.0635,0.275167 -0.05292,0.455084 h 0.8255 c 0.15875,-0.635 0.264583,-0.867834 1.0795,-0.867834 0.66675,0 1.016,0.201084 1.016,0.889 0,0.8255 -0.306917,0.497417 -2.233084,1.322917 -0.497416,0.1905 -0.772583,0.529167 -0.878416,0.910167 -0.09525,0.22225 -0.105833,0.433916 -0.105833,0.47625 0,1.121833 0.529166,1.7145 1.746249,1.7145 0.635,0 1.259417,-0.433917 1.534584,-0.994834 h 0.02117 c 0.04233,0.41275 0.137584,0.635 0.296334,0.762 0.232833,0.116417 0.518583,0.127 0.931333,0.105834 0.08467,-0.02117 0.179917,-0.03175 0.275167,-0.04233 0,-0.15875 -0.0635,-0.306916 -0.0635,-0.47625 z m -1.608667,-1.354666 c -0.03175,0.973666 -0.762,1.227666 -1.132417,1.227666 -0.529166,0 -0.79375,-0.1905 -0.867833,-0.560916 -0.02117,-0.105834 -0.03175,-0.232834 -0.03175,-0.370417 0.01058,-0.359833 0.169333,-0.719667 0.5715,-0.878417 0.486833,-0.201083 1.026583,-0.370416 1.481667,-0.635 0,0.41275 0,0.814917 -0.02117,1.217084 z"
           style="font-style:normal;font-variant:normal;font-weight:normal;font-stretch:normal;font-size:10.58333302px;font-family:'.Helvetica LT MM';-inkscape-font-specification:'.Helvetica LT MM, Normal';font-variant-ligatures:normal;font-variant-caps:normal;font-variant-numeric:normal;font-feature-settings:normal;text-align:start;writing-mode:lr-tb;text-anchor:start;stroke-width:0.26458332"
           id="path824" />
        <path
           d="m 55.118116,72.482147 h 1.026583 v -5.789083 h -1.058333 v 3.672417 c 0,0.232833 -0.04233,0.529166 -0.232833,0.719666 -0.232834,0.465667 -0.635,0.709084 -1.11125,0.709084 -0.656167,0 -0.867834,-0.275167 -0.867834,-0.889 v -4.212167 h -1.04775 v 3.048 c 0,0.47625 0,0.931333 0.02117,1.386417 0.0635,1.0795 0.719667,1.524 1.608667,1.524 0.6985,0 1.280583,-0.328084 1.651,-1.026584 h 0.01058 z"
           style="font-style:normal;font-variant:normal;font-weight:normal;font-stretch:normal;font-size:10.58333302px;font-family:'.Helvetica LT MM';-inkscape-font-specification:'.Helvetica LT MM, Normal';font-variant-ligatures:normal;font-variant-caps:normal;font-variant-numeric:normal;font-feature-settings:normal;text-align:start;writing-mode:lr-tb;text-anchor:start;stroke-width:0.26458332"
           id="path826" />
        <path
           d="m 61.577256,68.164147 c -0.01058,-0.22225 -0.04233,-0.41275 -0.116417,-0.560916 -0.296333,-0.783167 -1.016,-1.0795 -1.979083,-1.0795 -0.836083,0 -1.566333,0.391583 -1.852083,1.11125 -0.07408,0.179916 -0.116417,0.391583 -0.116417,0.613833 v -0.0635 c 0,2.233083 3.058583,1.322917 3.185583,2.719917 0.02117,-0.02117 0.04233,-0.04233 0.04233,-0.05292 0,0.211667 -0.03175,0.41275 -0.127,0.582083 -0.169334,0.306917 -0.529167,0.455084 -1.016,0.518584 -0.85725,0.07408 -1.164167,-0.34925 -1.132417,-1.0795 h -1.005417 c 0.02117,0.931333 0.783167,1.80975 2.06375,1.778 1.068917,0.01058 1.820334,-0.423334 2.148417,-1.153584 0.105833,-0.211666 0.15875,-0.4445 0.15875,-0.709083 0,-0.179917 -0.03175,-0.3175 -0.09525,-0.433917 -0.232833,-0.751416 -0.98425,-0.8255 -1.8415,-1.068916 -0.264583,-0.07408 -0.497417,-0.127 -0.677333,-0.211667 -0.34925,-0.148167 -0.613834,-0.370417 -0.5715,-0.867833 0,-0.613834 0.34925,-0.910167 0.963083,-0.9525 0.719667,-0.04233 0.98425,0.243416 0.9525,0.910166 z"
           style="font-style:normal;font-variant:normal;font-weight:normal;font-stretch:normal;font-size:10.58333302px;font-family:'.Helvetica LT MM';-inkscape-font-specification:'.Helvetica LT MM, Normal';font-variant-ligatures:normal;font-variant-caps:normal;font-variant-numeric:normal;font-feature-settings:normal;text-align:start;writing-mode:lr-tb;text-anchor:start;stroke-width:0.26458332"
           id="path828" />
        <path
           d="m 66.200684,70.651231 c 0.02117,0.635 -0.264584,1.312333 -1.121834,1.23825 0,-0.04233 0.02117,-0.05292 0.04233,-0.05292 -0.85725,0 -1.143,-0.751417 -1.195917,-1.513417 0.05292,-0.211666 0.127,-0.4445 0.1905,-0.592666 h 3.14325 c -0.02117,-0.560917 -0.05292,-1.164167 -0.22225,-1.672167 -0.254,-0.85725 -0.762,-1.534583 -1.989667,-1.534583 -0.98425,0 -1.55575,0.677333 -1.904999,1.49225 -0.232834,0.529166 -0.328084,1.143 -0.328084,1.661583 0,0.931333 0.179917,1.55575 0.465667,1.9685 0.4445,0.740833 1.068916,1.005417 1.788583,1.005417 0.963083,0 1.61925,-0.508 1.93675,-1.280584 0.105833,-0.211666 0.169333,-0.455083 0.179917,-0.719666 z m -2.201334,-1.68275 c -0.02117,-0.116417 -0.05292,-0.275167 -0.0635,-0.423334 0.02117,-0.201083 0.07408,-0.391583 0.148167,-0.550333 0.15875,-0.359833 0.455083,-0.656167 0.994833,-0.656167 0.508,0 0.783167,0.306917 0.941917,0.66675 0.127,0.296334 0.127,0.687917 0.148167,0.963084 z"
           style="font-style:normal;font-variant:normal;font-weight:normal;font-stretch:normal;font-size:10.58333302px;font-family:'.Helvetica LT MM';-inkscape-font-specification:'.Helvetica LT MM, Normal';font-variant-ligatures:normal;font-variant-caps:normal;font-variant-numeric:normal;font-feature-settings:normal;text-align:start;writing-mode:lr-tb;text-anchor:start;stroke-width:0.26458332"
           id="path830" />
      </g>
    </g>
  </g>
</svg>
