<?xml version="1.0" encoding="UTF-8" standalone="no"?>
<!DOCTYPE svg PUBLIC "-//W3C//DTD SVG 1.1//EN" "http://www.w3.org/Graphics/SVG/1.1/DTD/svg11.dtd">
<svg version="1.1" xmlns="http://www.w3.org/2000/svg" xmlns:xlink="http://www.w3.org/1999/xlink" preserveAspectRatio="xMidYMid meet" viewBox="126.2699999999979 201.73196306706717 106.76000000000096 101.85803693293303" width="110" height="105"><defs><path d="M133.87 225.81L131.67 227.81L130.27 230.01L128.67 232.21L127.87 234.81L127.27 237.41L127.27 240.21L127.27 242.81L127.67 245.61L128.07 248.21L128.67 250.81L129.47 253.61L130.47 256.01L131.67 258.61L132.87 260.81L134.87 262.41L137.07 264.01L139.27 265.41L141.47 266.81L143.67 268.21L146.07 269.41L148.87 270.21L151.47 270.81L154.07 271.21L156.67 271.41L159.27 271.41L162.07 271.61L164.67 271.81L167.67 271.61L170.27 271.41L173.67 271.61L176.47 272.01L179.07 272.01L182.07 271.01L184.47 270.01L186.87 269.01L189.87 268.21L192.27 267.41L194.27 265.61L196.27 264.01L198.27 262.41L200.47 260.61L202.27 258.81L203.47 256.41L204.67 253.61L205.87 251.01L207.07 248.21L207.87 245.81L208.47 243.21L208.67 240.41L208.87 237.61L208.87 235.01L208.07 232.41L207.27 229.21L206.27 226.61L205.07 224.41L203.27 222.61L200.67 222.21L198.87 224.01L197.87 226.41L197.27 229.01L196.07 231.21L193.87 232.41L191.27 233.41L188.27 233.81L185.67 233.81L182.67 233.81L180.07 233.81L176.67 233.81L173.47 233.81L170.67 233.81L167.87 233.41L164.67 233.41L160.47 233.61L157.87 233.61L154.87 233.61L152.27 233.41L149.87 232.61L146.87 232.21L143.87 232.41L141.07 232.21L138.87 231.01L137.67 228.41L136.47 226.21L133.87 226.21" id="c5HlkLyMqn"></path><path d="M150.27 244.71C150.27 246.86 149.55 248.61 148.67 248.61C147.79 248.61 147.07 246.86 147.07 244.71C147.07 242.56 147.79 240.81 148.67 240.81C149.55 240.81 150.27 242.56 150.27 244.71Z" id="amxPwdb4O"></path><path d="M186.27 244.71C186.27 246.86 185.55 248.61 184.67 248.61C183.79 248.61 183.07 246.86 183.07 244.71C183.07 242.56 183.79 240.81 184.67 240.81C185.55 240.81 186.27 242.56 186.27 244.71Z" id="a2w5zHIJS"></path><path d="M153.07 253.41L150.47 253.81L148.87 256.01L148.67 258.81L149.47 261.41L151.47 263.01L153.87 263.81L156.67 263.81L159.07 263.01L161.47 261.81L163.27 259.81L165.07 261.61L167.27 262.81L170.27 263.21L173.47 263.01L175.87 262.21L177.67 260.41L178.67 258.01L178.87 255.21L178.07 252.81L176.27 251.01" id="aD5YPetwv"></path><path d="M154.83 299.59L153.43 297.39L151.83 295.19L150.43 292.59L149.43 289.99L148.63 287.39L148.63 284.59L148.63 281.99L148.63 279.39L149.23 276.59L150.63 274.19L152.43 272.39" id="bZK8DKOUa"></path><path d="M149.56 291.49L147.26 290.55L145.13 288.92L144.07 285.41L144.25 281.9L144.96 279.1L146.02 276.53L147.97 274.89L150.27 274.89" id="a1hR538n63"></path><path d="M169.81 202.73L222.82 216.65L215.27 245.39L162.27 231.47L169.81 202.73Z" id="c8UZTv6CB"></path><path d="M154.83 298.79L156.83 300.59L159.43 300.19L160.23 297.79L160.23 294.99L162.83 293.99L165.43 293.79L168.03 293.99L169.83 295.99L170.63 298.59L172.63 300.19L174.83 298.79L176.03 296.59L176.63 293.99L177.23 291.19L177.83 288.59L179.83 286.99L182.23 286.19L184.83 286.19L187.43 285.99L188.03 283.39L186.83 281.19L184.63 279.99L182.03 279.79L179.43 279.79L176.83 278.99L175.43 276.39L175.23 273.79" id="d130VSYkO9"></path><path d="M184.43 283.19L185.03 278.99L185.63 275.59L186.23 272.59L187.03 269.99L187.83 266.19L188.63 262.79L189.03 259.79L189.63 257.19L189.83 254.19L190.03 251.59L191.03 248.79L191.43 245.99L192.03 243.39L192.83 240.79L191.43 238.59L188.03 237.39L185.03 236.59L182.03 235.79L179.03 235.19L176.43 234.59L173.63 233.79L170.23 233.39L167.63 232.59L165.03 231.79L162.43 230.99L162.83 227.59L163.63 224.99L165.03 221.19L166.23 217.99L167.03 215.59L168.23 212.39L169.03 209.39L169.63 206.59L173.03 204.99L176.83 205.19L180.63 206.59L183.23 207.79L187.03 209.19L189.63 209.99L193.23 210.39L196.23 210.59L198.83 210.99L202.23 211.79L204.63 212.79L207.43 213.59L210.83 214.19L214.03 214.79L217.43 215.39L220.03 215.99L222.83 217.19L225.23 218.39L227.63 219.19L230.03 220.39L228.43 223.99L226.63 227.19L225.43 230.39L224.63 233.19L224.23 236.19L223.83 239.19L222.83 242.39L222.23 244.99L219.23 245.79L215.63 245.39L212.83 245.19L209.43 244.39L206.63 243.59L203.83 242.79L201.03 241.79L198.23 241.19L195.63 240.79L193.03 240.59" id="lg7uyTqxj"></path><text id="a1PJZhpue" x="178" y="223" font-size="13.5" font-family="Arial, Helvetica, sans-serif" font-weight="normal" font-style="normal" letter-spacing="0" alignment-baseline="before-edge" transform="matrix(0.9768284294011931 0.22728438153556768 -0.24828438153556768 0.9738284294011931 51.741260538148374 -46.25818939889902)" style="line-height:100%" xml:space="preserve" dominant-baseline="text-before-edge"><tspan x="176.41" dy="0em" alignment-baseline="before-edge" dominant-baseline="text-before-edge" text-anchor="start">JS Cause</tspan></text></defs><g><g><g><use xlink:href="#c5HlkLyMqn" opacity="1" fill-opacity="0" stroke="#000000" stroke-width="1" stroke-opacity="1"></use></g></g><g><use xlink:href="#amxPwdb4O" opacity="1" fill="#000000" fill-opacity="1"></use></g><g><use xlink:href="#a2w5zHIJS" opacity="1" fill="#000000" fill-opacity="1"></use></g><g><g><use xlink:href="#aD5YPetwv" opacity="1" fill-opacity="0" stroke="#000000" stroke-width="1" stroke-opacity="1"></use></g></g><g><g><use xlink:href="#bZK8DKOUa" opacity="1" fill-opacity="0" stroke="#000000" stroke-width="1" stroke-opacity="1"></use></g></g><g><g><use xlink:href="#a1hR538n63" opacity="1" fill-opacity="0" stroke="#000000" stroke-width="1" stroke-opacity="1"></use></g></g><g><use xlink:href="#c8UZTv6CB" opacity="1" fill="#ffffff" fill-opacity="1"></use></g><g><g><use xlink:href="#d130VSYkO9" opacity="1" fill-opacity="0" stroke="#000000" stroke-width="1" stroke-opacity="1"></use></g></g><g><g><use xlink:href="#lg7uyTqxj" opacity="1" fill-opacity="0" stroke="#000000" stroke-width="1" stroke-opacity="1"></use></g></g><g id="a1CwYA5Iv0"><use xlink:href="#a1PJZhpue" opacity="1" fill="#38c435" fill-opacity="1"></use></g></g></svg>